<svg width="30" height="30" viewBox="0 0 30 30" fill="none" xmlns="http://www.w3.org/2000/svg">
<path fill-rule="evenodd" clip-rule="evenodd" d="M23.3999 2.3999H6.5999C4.28031 2.3999 2.3999 4.28031 2.3999 6.5999V23.3999C2.3999 25.7195 4.28031 27.5999 6.5999 27.5999H23.3999C25.7195 27.5999 27.5999 25.7195 27.5999 23.3999V6.5999C27.5999 4.28031 25.7195 2.3999 23.3999 2.3999ZM3.60107 6.59985C3.60107 4.943 4.94422 3.59985 6.60107 3.59985H23.4011C25.0579 3.59985 26.4011 4.943 26.4011 6.59985V23.3999C26.4011 25.0567 25.0579 26.3999 23.4011 26.3999H6.60107C4.94422 26.3999 3.60107 25.0567 3.60107 23.3999V6.59985Z" fill="#0732A2"/>
<path fill-rule="evenodd" clip-rule="evenodd" d="M14.4008 14.3996V11.3996C14.4008 11.0682 14.6694 10.7996 15.0008 10.7996C15.3322 10.7996 15.6008 11.0682 15.6008 11.3996V14.3996H18.6008C18.9322 14.3996 19.2008 14.6682 19.2008 14.9996C19.2008 15.3309 18.9322 15.5996 18.6008 15.5996H15.6008V18.5996C15.6008 18.9309 15.3322 19.1996 15.0008 19.1996C14.6694 19.1996 14.4008 18.9309 14.4008 18.5996V15.5996H11.4008C11.0694 15.5996 10.8008 15.3309 10.8008 14.9996C10.8008 14.6682 11.0694 14.3996 11.4008 14.3996H14.4008Z" fill="#3FA9F5"/>
</svg>
