<svg width="18" height="20" viewBox="0 0 18 20" fill="none" xmlns="http://www.w3.org/2000/svg">
<path d="M12.4857 0C11.4026 0.0737495 10.1365 0.756245 9.39876 1.64499C8.72575 2.45123 8.1721 3.64873 8.38797 4.81247C9.57145 4.84872 10.7943 4.14997 11.5029 3.24623C12.1657 2.40498 12.6673 1.21499 12.4857 0Z" fill="#DADADA"/>
<path d="M16.7664 6.70995C15.7264 5.42621 14.2648 4.68121 12.8845 4.68121C11.0623 4.68121 10.2915 5.53996 9.02549 5.53996C7.72011 5.53996 6.72837 4.68371 5.1525 4.68371C3.60458 4.68371 1.95634 5.61496 0.911264 7.20745C-0.557933 9.44993 -0.306506 13.6662 2.07443 17.2574C2.92649 18.5424 4.06426 19.9874 5.5525 19.9999C6.87694 20.0124 7.25027 19.1636 9.04454 19.1549C10.8388 19.1449 11.1791 20.0111 12.501 19.9974C13.9905 19.9861 15.1905 18.3849 16.0426 17.0999C16.6534 16.1786 16.8807 15.7149 17.3543 14.6749C13.9093 13.3837 13.3569 8.56119 16.7664 6.70995Z" fill="#DADADA"/>
</svg>
