<svg xmlns="http://www.w3.org/2000/svg" viewBox="0 0 312.59 345.01"><defs><style>.cls-1{fill:#30bced;}.cls-2{fill:#282356;}</style></defs><g id="Layer_2" data-name="Layer 2"><g id="Layer_1-2" data-name="Layer 1"><path class="cls-1" d="M237.54,157.64A74.41,74.41,0,1,1,312,83.23,74.49,74.49,0,0,1,237.54,157.64Zm0-115.68a41.32,41.32,0,0,0-41.27,41.27h0A41.27,41.27,0,1,0,237.54,42Z"/><path class="cls-1" d="M89.08,299.05h0a57.83,57.83,0,0,1-77.93-24.83h0A57.83,57.83,0,0,1,36,196.29h0"/><path class="cls-1" d="M59.73,242.25a57.83,57.83,0,0,1,77.93,24.82h0A57.83,57.83,0,0,1,112.84,345"/><path class="cls-2" d="M312.59,337.69H279.45V279.85a41.27,41.27,0,1,0-82.54,0v57.84H163.78V279.85a74.41,74.41,0,0,1,148.81,0Z"/><rect class="cls-2" x="163.78" y="197.65" width="33.13" height="140.04"/><path class="cls-2" d="M148.81,92.44v57.83H115.68V92.44a41.28,41.28,0,1,0-82.55,0v57.83H0V92.44A74.09,74.09,0,0,1,13.88,49.18c.89.07,1.79.12,2.69.12a33.11,33.11,0,0,0,23.5-9.75,32.92,32.92,0,0,0,9.12-17.14,74.46,74.46,0,0,1,99.62,70Z"/><rect class="cls-1" x="0.52" width="32.11" height="32.11" rx="16.05"/></g></g></svg>