<svg width="30" height="30" viewBox="0 0 30 30" fill="none" xmlns="http://www.w3.org/2000/svg">
<path fill-rule="evenodd" clip-rule="evenodd" d="M6.00005 27V18H23.4C23.7028 18 24.0007 17.9236 24.2662 17.7779C25.1376 17.2996 25.4563 16.2054 24.9779 15.3339L22.1599 10.2L24.9779 5.06615C25.1236 4.80072 25.2 4.50282 25.2 4.20002C25.2 3.20591 24.3941 2.40002 23.4 2.40002H5.40005C5.06868 2.40002 4.80005 2.66865 4.80005 3.00002V27C4.80005 27.3314 5.06868 27.6 5.40005 27.6C5.73142 27.6 6.00005 27.3314 6.00005 27ZM6 16.8V3.6H23.4C23.7313 3.6 24 3.86863 24 4.2C24 4.30093 23.9745 4.40023 23.9259 4.48871L20.9495 9.91129C20.8507 10.0911 20.8507 10.3089 20.9495 10.4887L23.9259 15.9113C24.0854 16.2018 23.9792 16.5665 23.6887 16.726C23.6002 16.7745 23.5009 16.8 23.4 16.8H6Z" fill="#0732A2"/>
</svg>
