<svg width="44" height="44" viewBox="0 0 44 44" fill="none" xmlns="http://www.w3.org/2000/svg">
<path fill-rule="evenodd" clip-rule="evenodd" d="M17.0793 36.1052C15.0703 34.8843 13.6755 32.7533 13.4671 30.2844C10.8082 29.3387 8.81381 26.9431 8.48623 23.9948L7.01278 10.7339L6.29891 5.4869C6.10026 3.86161 4.72022 2.63998 3.08284 2.63998H1.55998C0.963513 2.63998 0.47998 2.15645 0.47998 1.55998C0.47998 0.963513 0.963513 0.47998 1.55998 0.47998H3.08284C5.81181 0.47998 8.11187 2.51603 8.44295 5.22485L8.91903 9.11998H42.6001C43.291 9.11998 43.8043 9.75979 43.6544 10.4343L40.462 24.8C39.6933 28.259 36.6254 30.72 33.082 30.72H16C15.9019 30.72 15.8041 30.7181 15.7069 30.7144C16.205 33.182 18.3855 35.04 21 35.04H34.5625C34.6164 35.04 34.6694 35.0439 34.7212 35.0516C34.8265 35.0439 34.9328 35.04 35.04 35.04C37.4259 35.04 39.36 36.9741 39.36 39.36C39.36 41.7459 37.4259 43.68 35.04 43.68C32.6541 43.68 30.72 41.7459 30.72 39.36C30.72 38.5731 30.9304 37.8354 31.2979 37.2H23.662C24.0296 37.8354 24.24 38.5731 24.24 39.36C24.24 41.7459 22.3059 43.68 19.92 43.68C17.5341 43.68 15.6 41.7459 15.6 39.36C15.6 38.0617 16.1727 36.8971 17.0793 36.1052ZM9.24683 11.28L10.6331 23.7563C10.9369 26.4911 13.2485 28.56 16.0001 28.56H33.0821C35.6131 28.56 37.8045 26.8021 38.3535 24.3314L41.2538 11.28H9.24683ZM26.3702 17.7755H29.6157C30.2132 17.7755 30.6975 18.2587 30.6975 18.8548C30.6975 19.4509 30.2132 19.9342 29.6157 19.9342H26.3702V23.1723C26.3702 23.7684 25.8858 24.2516 25.2883 24.2516C24.6908 24.2516 24.2065 23.7684 24.2065 23.1723V19.9342H20.961C20.3635 19.9342 19.8791 19.4509 19.8791 18.8548C19.8791 18.2587 20.3635 17.7755 20.961 17.7755H24.2065V14.5374C24.2065 13.9413 24.6908 13.4581 25.2883 13.4581C25.8858 13.4581 26.3702 13.9413 26.3702 14.5374V17.7755ZM35.04 41.52C36.2329 41.52 37.2 40.5529 37.2 39.36C37.2 38.1671 36.2329 37.2 35.04 37.2C33.8471 37.2 32.88 38.1671 32.88 39.36C32.88 40.5529 33.8471 41.52 35.04 41.52ZM19.92 41.52C21.1129 41.52 22.08 40.5529 22.08 39.36C22.08 38.1671 21.1129 37.2 19.92 37.2C18.7271 37.2 17.76 38.1671 17.76 39.36C17.76 40.5529 18.7271 41.52 19.92 41.52Z" fill="#30BCED"/>
</svg>
