<svg width="30" height="30" viewBox="0 0 30 30" fill="none" xmlns="http://www.w3.org/2000/svg">
<path fill-rule="evenodd" clip-rule="evenodd" d="M26.8697 27.5857C27.2985 27.681 27.6809 27.2986 27.5856 26.8698L26.2222 20.7345C27.1229 18.9753 27.5999 17.0214 27.5999 15C27.5999 8.04124 21.9587 2.40002 14.9999 2.40002C8.04111 2.40002 2.3999 8.04124 2.3999 15C2.3999 21.9588 8.04111 27.6 14.9999 27.6C17.0213 27.6 18.9751 27.123 20.7343 26.2223L26.8697 27.5857ZM25.0599 20.3677C24.9922 20.4942 24.9721 20.6407 25.0032 20.7808L26.2097 26.2098L20.7807 25.0033C20.6406 24.9723 20.4941 24.9923 20.3676 25.06C18.7302 25.9355 16.8993 26.4 14.9999 26.4C8.70385 26.4 3.5999 21.2961 3.5999 15C3.5999 8.70397 8.70385 3.60002 14.9999 3.60002C21.2959 3.60002 26.3999 8.70397 26.3999 15C26.3999 16.8994 25.9354 18.7303 25.0599 20.3677Z" fill="#0732A2"/>
</svg>
