<svg width="25" height="25" viewBox="0 0 25 25" fill="none" xmlns="http://www.w3.org/2000/svg">
<path d="M20 9.5V19.5C20 20.9843 18.9843 22 17.5 22H6.5C5.01573 22 4 20.9843 4 19.5V8.5C4 7.01573 5.01573 6 6.5 6H16.5C16.7761 6 17 5.77614 17 5.5C17 5.22386 16.7761 5 16.5 5H6.5C4.46345 5 3 6.46345 3 8.5V19.5C3 21.5366 4.46345 23 6.5 23H17.5C19.5366 23 21 21.5366 21 19.5V9.5C21 9.22386 20.7761 9 20.5 9C20.2239 9 20 9.22386 20 9.5Z" fill="#0732A2"/>
<path fill-rule="evenodd" clip-rule="evenodd" d="M22.1459 3.14703L11.178 14.1513C10.983 14.3469 10.9836 14.6635 11.1791 14.8584C11.3747 15.0533 11.6913 15.0528 11.8862 14.8572L22.8541 3.85297C23.0491 3.65738 23.0486 3.3408 22.853 3.14586C22.6574 2.95092 22.3408 2.95145 22.1459 3.14703Z" fill="#3FA9F5"/>
</svg>
