<svg width="37" height="37" viewBox="0 0 37 37" fill="none" xmlns="http://www.w3.org/2000/svg">
<path d="M29.5999 14.06V28.86C29.5999 31.0567 28.0967 32.56 25.8999 32.56H9.61994C7.42323 32.56 5.91994 31.0567 5.91994 28.86V12.58C5.91994 10.3833 7.42323 8.88002 9.61994 8.88002H24.4199C24.8286 8.88002 25.1599 8.54872 25.1599 8.14002C25.1599 7.73133 24.8286 7.40002 24.4199 7.40002H9.61994C6.60585 7.40002 4.43994 9.56593 4.43994 12.58V28.86C4.43994 31.8741 6.60585 34.04 9.61994 34.04H25.8999C28.914 34.04 31.0799 31.8741 31.0799 28.86V14.06C31.0799 13.6513 30.7486 13.32 30.3399 13.32C29.9313 13.32 29.5999 13.6513 29.5999 14.06Z" fill="white"/>
<path fill-rule="evenodd" clip-rule="evenodd" d="M32.776 4.65755L16.5435 20.9439C16.255 21.2333 16.2558 21.7019 16.5452 21.9904C16.8347 22.2789 17.3033 22.2781 17.5918 21.9887L33.8242 5.70233C34.1128 5.41287 34.112 4.94433 33.8225 4.65582C33.533 4.36731 33.0645 4.36808 32.776 4.65755Z" fill="#3FA9F5"/>
</svg>
