<svg width="30" height="30" viewBox="0 0 30 30" fill="none" xmlns="http://www.w3.org/2000/svg">
<path fill-rule="evenodd" clip-rule="evenodd" d="M23.4 3.60002H21.0024C20.671 3.60002 20.4024 3.3314 20.4024 3.00002C20.4024 2.66865 20.671 2.40002 21.0024 2.40002H23.4C25.7196 2.40002 27.6 4.28043 27.6 6.60002V8.97424C27.6 9.30561 27.3313 9.57424 27 9.57424C26.6686 9.57424 26.4 9.30561 26.4 8.97424V6.60002C26.4 4.94317 25.0568 3.60002 23.4 3.60002ZM3.5999 6.60004V9.00018C3.5999 9.33155 3.33127 9.60018 2.9999 9.60018C2.66853 9.60018 2.3999 9.33155 2.3999 9.00018V6.60004C2.3999 4.28044 4.28031 2.40004 6.5999 2.40004H8.98804C9.31941 2.40004 9.58804 2.66866 9.58804 3.00004C9.58804 3.33141 9.31941 3.60004 8.98804 3.60004H6.5999C4.94305 3.60004 3.5999 4.94318 3.5999 6.60004ZM26.3998 20.9871V23.4C26.3998 25.0569 25.0567 26.4 23.3998 26.4H21.0228C20.6914 26.4 20.4228 26.6687 20.4228 27C20.4228 27.3314 20.6914 27.6 21.0228 27.6H23.3998C25.7194 27.6 27.5998 25.7196 27.5998 23.4V20.9871C27.5998 20.6557 27.3312 20.3871 26.9998 20.3871C26.6684 20.3871 26.3998 20.6557 26.3998 20.9871ZM6.5999 26.4H8.99126C9.32263 26.4 9.59126 26.6686 9.59126 27C9.59126 27.3313 9.32263 27.6 8.99126 27.6H6.5999C4.28031 27.6 2.3999 25.7196 2.3999 23.4V21.0164C2.3999 20.685 2.66853 20.4164 2.9999 20.4164C3.33127 20.4164 3.5999 20.685 3.5999 21.0164V23.4C3.5999 25.0568 4.94305 26.4 6.5999 26.4Z" fill="#0732A2"/>
<path fill-rule="evenodd" clip-rule="evenodd" d="M18.6 7.20001H11.4C9.08036 7.20001 7.19995 9.08042 7.19995 11.4V18.6C7.19995 20.9196 9.08036 22.8 11.4 22.8H18.6C20.9195 22.8 22.8 20.9196 22.8 18.6V11.4C22.8 9.08042 20.9195 7.20001 18.6 7.20001ZM8.39999 11.3999C8.39999 9.74308 9.74314 8.39993 11.4 8.39993H18.6C20.2568 8.39993 21.6 9.74308 21.6 11.3999V18.5999C21.6 20.2568 20.2568 21.5999 18.6 21.5999H11.4C9.74314 21.5999 8.39999 20.2568 8.39999 18.5999V11.3999Z" fill="#3FA9F5"/>
</svg>
