<svg width="28" height="19" viewBox="0 0 28 19" fill="none" xmlns="http://www.w3.org/2000/svg">
<path d="M18.1312 0C16.0173 0 14.0715 0.700591 12.4954 1.87053C14.5489 2.67235 16.0812 5.76227 16.0812 9.4596C16.0812 13.1765 14.5339 16.2796 12.465 17.0625C14.0467 18.2462 16.0035 18.956 18.1317 18.956C23.3666 18.956 27.6097 14.7122 27.6097 9.47742C27.6086 4.24375 23.3654 0 18.1312 0Z" fill="#E2E2E2"/>
<path d="M12.4949 1.87053C11.8133 2.37612 11.2048 2.97259 10.6802 3.63809C15.3944 6.0004 14.6415 14.5276 12.4644 17.0625C14.5334 16.2802 16.0806 13.1765 16.0806 9.4596C16.0806 5.7617 14.5489 2.67177 12.4949 1.87053Z" fill="#3DAA9D"/>
<path d="M10.6802 3.63809C9.41303 5.24633 8.6532 7.27041 8.6532 9.47742C8.6532 12.5846 10.155 15.334 12.4644 17.0625C14.6415 14.5276 15.3944 6.0004 10.6802 3.63809Z" fill="#79CCB8"/>
<path d="M10.6474 12.1762C11.3783 12.1762 11.9709 10.9602 11.9709 9.46017C11.9709 7.96013 11.3783 6.74413 10.6474 6.74413C9.91641 6.74413 9.32385 7.96013 9.32385 9.46017C9.32385 10.9602 9.91641 12.1762 10.6474 12.1762Z" fill="#525C6B"/>
<path d="M11.4584 8.66697C11.7417 8.66697 11.9715 8.19571 11.9715 7.61438C11.9715 7.03304 11.7417 6.56177 11.4584 6.56177C11.175 6.56177 10.9453 7.03304 10.9453 7.61438C10.9453 8.19571 11.175 8.66697 11.4584 8.66697Z" fill="white"/>
<path d="M3.78478 15.8454C3.6059 15.8454 3.43909 15.7338 3.37697 15.5555C2.86448 14.0784 2.57056 11.8564 2.57056 9.45961C2.57056 7.06394 2.86505 4.84198 3.37697 3.36259C3.4552 3.13769 3.69908 3.01861 3.92628 3.09626C4.15118 3.17507 4.27082 3.42011 4.19259 3.64558C3.71691 5.01626 3.43334 7.18991 3.43334 9.45903C3.43334 11.7293 3.71691 13.903 4.19259 15.2713C4.27082 15.4968 4.15175 15.7424 3.92628 15.8206C3.87969 15.8373 3.83195 15.8454 3.78478 15.8454Z" fill="#1A171B"/>
<path d="M5.19858 1.66173C2.32723 1.66173 0 5.15313 0 9.46016C0 13.7672 2.32723 17.2586 5.19858 17.2586V1.66173Z" fill="#E2E2E2"/>
<path d="M5.19858 17.258C6.34696 17.258 7.27789 13.7666 7.27789 9.4596C7.27789 5.15264 6.34696 1.66115 5.19858 1.66115C4.05021 1.66115 3.11926 5.15264 3.11926 9.4596C3.11926 13.7666 4.05021 17.258 5.19858 17.258Z" fill="#C6C6C6"/>
</svg>
