<svg width="28" height="20" viewBox="0 0 28 20" fill="none" xmlns="http://www.w3.org/2000/svg">
<path d="M14 14C6.26792 14 0 9.91666 0 9.91666C0 9.91666 6.26792 19.8333 14 19.8333C21.7315 19.8333 28 9.91666 28 9.91666C28 9.91666 21.7315 14 14 14Z" fill="#C6C6C6"/>
<path d="M28 9.91667C28 9.91667 21.7315 0 14 0C6.26792 0 0 9.91667 0 9.91667C0 9.91667 6.26792 14 14 14C21.7315 14 28 9.91667 28 9.91667Z" fill="#E2E2E2"/>
<path d="M20.5601 13.0818C21.0238 12.1234 21.2916 11.0524 21.2916 9.91608C21.2916 5.88933 18.0267 2.62441 13.9999 2.62441C9.97259 2.62441 6.70825 5.88933 6.70825 9.91608C6.70825 11.0524 6.97543 12.1234 7.43918 13.0818C9.39568 13.615 11.6287 13.9994 13.9999 13.9994C16.3706 14 18.603 13.615 20.5601 13.0818Z" fill="#79CCB8"/>
<path d="M13.9999 14C11.6287 14 9.39571 13.6156 7.43921 13.0824C8.61813 15.5219 11.1089 17.2083 13.9999 17.2083C16.8904 17.2083 19.3812 15.5213 20.5601 13.0824C18.603 13.615 16.3706 14 13.9999 14Z" fill="#3DAA9D"/>
<path d="M14 12.5417C15.4497 12.5417 16.625 11.3664 16.625 9.91666C16.625 8.46692 15.4497 7.29166 14 7.29166C12.5503 7.29166 11.375 8.46692 11.375 9.91666C11.375 11.3664 12.5503 12.5417 14 12.5417Z" fill="#525C6B"/>
</svg>
