<svg width="53" height="52" viewBox="0 0 53 52" fill="none" xmlns="http://www.w3.org/2000/svg">
<path d="M23.2317 31.4904C25.6639 31.4904 27.643 29.5183 27.643 27.0947V18.6292C27.643 17.9998 27.1311 17.4898 26.4995 17.4898C25.868 17.4898 25.3561 17.9998 25.3561 18.6292V27.0947C25.3561 28.2619 24.4036 29.211 23.2323 29.211C22.6007 29.211 22.0889 29.7211 22.0889 30.3504C22.0883 30.9803 22.6002 31.4904 23.2317 31.4904Z" fill="#023248"/>
<path d="M13.6743 19.4471V22.7029C13.6743 23.4668 14.2962 24.0865 15.0628 24.0865C15.8295 24.0865 16.4514 23.4668 16.4514 22.7029V19.4471C16.4514 18.6831 15.8295 18.0635 15.0628 18.0635C14.2962 18.0635 13.6743 18.6831 13.6743 19.4471Z" fill="#023248"/>
<path d="M37.9354 24.0871C38.702 24.0871 39.3239 23.4674 39.3239 22.7035V19.4477C39.3239 18.6837 38.702 18.064 37.9354 18.064C37.1687 18.064 36.5469 18.6837 36.5469 19.4477V22.7035C36.5469 23.4674 37.1687 24.0871 37.9354 24.0871Z" fill="#023248"/>
<path d="M36.2956 37.1358C35.892 36.6518 35.171 36.5854 34.6853 36.9881C29.7588 41.0686 22.607 41.0686 17.6805 36.9881C17.1949 36.5859 16.4738 36.6524 16.0703 37.1358C15.6667 37.6197 15.7328 38.3382 16.2191 38.7404C19.1061 41.1316 22.6447 42.3267 26.1838 42.3267C29.7224 42.3267 33.2615 41.1311 36.1485 38.7404C36.633 38.3382 36.6997 37.6197 36.2956 37.1358Z" fill="#023248"/>
<path d="M1.99409 19.3998C2.62565 19.3998 3.13751 18.8898 3.13751 18.2604V12.5708C3.13751 7.35994 7.39199 3.12038 12.6212 3.12038H18.3314C18.963 3.12038 19.4748 2.61032 19.4748 1.98098C19.4748 1.35163 18.963 0.841568 18.3314 0.841568H12.6212C6.13058 0.841568 0.850098 6.10352 0.850098 12.5713V18.261C0.850668 18.8898 1.36253 19.3998 1.99409 19.3998Z" fill="#023248"/>
<path d="M51.0061 33.4006C50.3746 33.4006 49.8627 33.9107 49.8627 34.54V40.2302C49.8627 45.4411 45.6082 49.6806 40.3791 49.6806H34.6688C34.0373 49.6806 33.5254 50.1907 33.5254 50.82C33.5254 51.4494 34.0373 51.9594 34.6688 51.9594H40.3791C46.8697 51.9594 52.1501 46.6975 52.1501 40.2297V34.54C52.1496 33.9107 51.6377 33.4006 51.0061 33.4006Z" fill="#023248"/>
<path d="M18.3313 49.6806H12.6211C7.39191 49.6806 3.13743 45.4411 3.13743 40.2302V34.54C3.13743 33.9107 2.62557 33.4006 1.99401 33.4006C1.36245 33.4006 0.850586 33.9107 0.850586 34.54V40.2302C0.850586 46.698 6.13107 51.96 12.6217 51.96H18.3319C18.9635 51.96 19.4753 51.4499 19.4753 50.8206C19.4748 50.1907 18.9629 49.6806 18.3313 49.6806Z" fill="#023248"/>
<path d="M40.3791 0.840561H34.6688C34.0373 0.840561 33.5254 1.35062 33.5254 1.97997C33.5254 2.60931 34.0373 3.11938 34.6688 3.11938H40.3791C45.6083 3.11938 49.8627 7.35893 49.8627 12.5698V18.2594C49.8627 18.8888 50.3746 19.3988 51.0062 19.3988C51.6377 19.3988 52.1496 18.8888 52.1496 18.2594V12.5703C52.1496 6.10251 46.8691 0.840561 40.3791 0.840561Z" fill="#023248"/>
</svg>
