<svg width="45" height="52" viewBox="0 0 45 52" fill="none" xmlns="http://www.w3.org/2000/svg">
<path d="M9.26807 4.32662C13.3395 2.35791 17.8095 1.3377 22.3378 1.34367C27.6404 1.34382 32.849 2.73435 37.437 5.37468" stroke="#023248" stroke-width="2" stroke-linecap="round" stroke-linejoin="round"/>
<path d="M43.6471 20.155C41.6414 16.3371 38.6329 13.1293 34.9405 10.8717C31.2481 8.61415 27.0093 7.39089 22.6737 7.33166C18.338 7.27244 14.067 8.37944 10.3134 10.5353C6.55985 12.6912 3.46364 15.8156 1.35303 19.5773" stroke="#023248" stroke-width="2" stroke-linecap="round" stroke-linejoin="round"/>
<path d="M20.1188 50.6563C17.0907 48.3725 14.6322 45.4275 12.9336 42.049C11.235 38.6705 10.3419 34.9493 10.3232 31.1731C10.3232 28.0086 11.589 24.9737 13.8422 22.7361C16.0953 20.4984 19.1512 19.2413 22.3377 19.2413C25.5241 19.2413 28.58 20.4984 30.8332 22.7361C33.0863 24.9737 34.3521 28.0086 34.3521 31.1731" stroke="#023248" stroke-width="2" stroke-linecap="round" stroke-linejoin="round"/>
<path d="M22.3376 31.1731C22.3565 32.8749 22.7177 34.5558 23.4002 36.1169C24.0828 37.678 25.0727 39.0878 26.3119 40.2634C27.5511 41.439 29.0145 42.3566 30.616 42.9622C32.2175 43.5679 33.9248 43.8494 35.6374 43.7902C36.4249 43.7789 37.2111 43.7205 37.9916 43.6155" stroke="#023248" stroke-width="2" stroke-linecap="round" stroke-linejoin="round"/>
<path d="M6.31833 41.9493C4.9925 38.5186 4.31372 34.8748 4.31592 31.2C4.31592 26.4532 6.21463 21.9009 9.59434 18.5444C12.9741 15.188 17.5579 13.3023 22.3376 13.3023C27.1172 13.3023 31.7011 15.188 35.0808 18.5444C38.4605 21.9009 40.3592 26.4532 40.3592 31.2C40.3592 31.9834 40.2038 32.7592 39.9019 33.483C39.6001 34.2069 39.1576 34.8645 38.5997 35.4185C38.0419 35.9725 37.3797 36.4119 36.6509 36.7118C35.922 37.0116 35.1409 37.1659 34.352 37.1659C33.5631 37.1659 32.782 37.0116 32.0531 36.7118C31.3243 36.4119 30.6621 35.9725 30.1043 35.4185C29.5464 34.8645 29.1039 34.2069 28.8021 33.483C28.5002 32.7592 28.3448 31.9834 28.3448 31.2C28.3448 29.6177 27.7119 28.1003 26.5853 26.9815C25.4587 25.8627 23.9308 25.2341 22.3376 25.2341C20.7444 25.2341 19.2164 25.8627 18.0898 26.9815C16.9633 28.1003 16.3304 29.6177 16.3304 31.2C16.3603 34.2566 17.1398 37.2599 18.6015 39.95C20.0631 42.64 22.1628 44.9359 24.7188 46.6388C26.5121 47.8395 28.5113 48.7047 30.6178 49.1917" stroke="#023248" stroke-width="2" stroke-linecap="round" stroke-linejoin="round"/>
</svg>
