<svg width="33" height="33" viewBox="0 0 33 33" fill="none" xmlns="http://www.w3.org/2000/svg">
<path fill-rule="evenodd" clip-rule="evenodd" d="M7.25998 6.6001H25.74C28.2915 6.6001 30.36 8.66854 30.36 11.2201V23.1001C30.36 25.6517 28.2915 27.7201 25.74 27.7201H7.25998C4.70843 27.7201 2.63998 25.6517 2.63998 23.1001V11.2201C2.63998 8.66854 4.70843 6.6001 7.25998 6.6001ZM7.26005 7.92003C5.43751 7.92003 3.96005 9.39749 3.96005 11.22V23.1C3.96005 24.9226 5.43751 26.4 7.26005 26.4H25.74C27.5626 26.4 29.04 24.9226 29.04 23.1V11.22C29.04 9.39749 27.5626 7.92003 25.74 7.92003H7.26005ZM6.60002 11.22C6.60002 11.5845 6.89551 11.88 7.26002 11.88H12.54C12.9045 11.88 13.2 11.5845 13.2 11.22C13.2 10.8555 12.9045 10.56 12.54 10.56H7.26002C6.89551 10.56 6.60002 10.8555 6.60002 11.22Z" fill="#30BCED"/>
</svg>
