<svg width="30" height="30" viewBox="0 0 30 30" fill="none" xmlns="http://www.w3.org/2000/svg">
<g id="Home House 1">
<path id="Shape" d="M15 5.51777L4.26777 16.25H2.5L15 3.75L27.5 16.25H25.7322L15 5.51777Z" fill="#30BCED"/>
<path id="Shape_2" d="M16.25 26.25V20.625C16.25 20.2798 15.9702 20 15.625 20H14.375C14.0298 20 13.75 20.2798 13.75 20.625V26.25H8.125C7.08947 26.25 6.25 25.4105 6.25 24.375V16.25L7.5 15V24.375C7.5 24.7202 7.77982 25 8.125 25H12.5V20.625C12.5 19.5895 13.3395 18.75 14.375 18.75H15.625C16.6605 18.75 17.5 19.5895 17.5 20.625V25H21.875C22.2202 25 22.5 24.7202 22.5 24.375V15L23.75 16.25V24.375C23.75 25.4105 22.9105 26.25 21.875 26.25H16.25Z" fill="#30BCED"/>
</g>
</svg>
