<svg width="30" height="30" viewBox="0 0 30 30" fill="none" xmlns="http://www.w3.org/2000/svg">
<path fill-rule="evenodd" clip-rule="evenodd" d="M14.9999 6C9.62728 6 4.81212 9.43964 2.45152 14.7565C2.3827 14.9115 2.3827 15.0885 2.45152 15.2435C4.81212 20.5604 9.62728 24 14.9999 24C20.3725 24 25.1877 20.5604 27.5483 15.2435C27.6171 15.0885 27.6171 14.9115 27.5483 14.7565C25.1877 9.43964 20.3725 6 14.9999 6ZM26.3409 15C24.129 19.7611 19.7949 22.8 14.9999 22.8C10.2049 22.8 5.87086 19.7611 3.65889 15C5.87086 10.2389 10.2049 7.2 14.9999 7.2C19.7949 7.2 24.129 10.2389 26.3409 15ZM15 19.2C12.6804 19.2 10.8 17.3196 10.8 15C10.8 12.6804 12.6804 10.8 15 10.8C17.3196 10.8 19.2 12.6804 19.2 15C19.2 17.3196 17.3196 19.2 15 19.2ZM18 15C18 16.6569 16.6569 18 15 18C13.3431 18 12 16.6569 12 15C12 13.3431 13.3431 12 15 12C16.6569 12 18 13.3431 18 15Z" fill="#0732A2"/>
<path d="M26.5525 2.57982C26.7902 2.34197 27.1778 2.33983 27.4182 2.57505C27.6586 2.81027 27.6607 3.19377 27.423 3.43162L3.44731 27.4202C3.20958 27.6581 2.822 27.6602 2.58161 27.425C2.34123 27.1898 2.33907 26.8063 2.57679 26.5684L26.5525 2.57982Z" fill="#3FA9F5"/>
</svg>
