<svg width="40" height="40" viewBox="0 0 40 40" fill="none" xmlns="http://www.w3.org/2000/svg">
<circle cx="20" cy="20" r="20" fill="white"/>
<path fill-rule="evenodd" clip-rule="evenodd" d="M28.0887 17.652V23.6532C28.0887 23.7576 28.1116 23.8605 28.1555 23.9536L29.1327 26.4321C29.2653 26.7137 29.3299 27.0129 29.3332 27.3083C29.3413 28.0476 28.9649 28.7632 28.3074 29.1188C28.0465 29.2599 27.7584 29.3334 27.4662 29.3334H12.5332C11.5022 29.3334 10.6665 28.4379 10.6665 27.3334C10.6665 27.0203 10.7351 26.7116 10.8668 26.4321L11.8442 23.9536C11.8881 23.8605 11.9109 23.7576 11.9109 23.6532V17.652C11.9109 14.2006 13.8727 11.2402 16.6667 9.98084C16.677 8.14871 18.1654 6.66669 20 6.66669C21.8346 6.66669 23.323 8.14878 23.3333 9.98096C26.1271 11.2403 28.0887 14.2007 28.0887 17.652ZM20 8C19.0632 8 18.2768 8.64412 18.0595 9.51366C18.5807 9.39549 19.1211 9.33333 19.675 9.33333H20.3247C20.8787 9.33333 21.4193 9.39552 21.9405 9.51372C21.7233 8.64416 20.9369 8 20 8ZM13.1554 17.652C13.1554 13.7941 16.0743 10.6667 19.675 10.6667H20.3247C23.9254 10.6667 26.8443 13.7941 26.8443 17.652V23.6532C26.8443 23.9662 26.9129 24.2749 27.0446 24.5544L28.0217 27.0329C28.1766 27.3616 28.0534 27.7626 27.7466 27.9285C27.6597 27.9755 27.5636 28 27.4662 28H12.5332C12.1895 28 11.911 27.7015 11.911 27.3333C11.911 27.229 11.9338 27.1261 11.9777 27.0329L12.9552 24.5544C13.0868 24.2749 13.1554 23.9662 13.1554 23.6532V17.652Z" fill="#023248"/>
<path d="M20.0001 32C20.8709 32 21.6117 31.4435 21.8862 30.6667L23.2667 30.6667C22.9579 32.1882 21.6127 33.3334 20.0001 33.3334C18.3874 33.3334 17.0422 32.1882 16.7334 30.6667H18.1139C18.3884 31.4435 19.1292 32 20.0001 32Z" fill="#023248"/>
<circle cx="34.5" cy="6.5" r="3.5" fill="#FF4000"/>
</svg>
