<svg width="30" height="30" viewBox="0 0 30 30" fill="none" xmlns="http://www.w3.org/2000/svg">
<path d="M11.2087 6.03253C9.61752 6.57746 8.16473 7.46234 6.94489 8.64812C2.48484 12.9836 2.48484 20.02 6.94489 24.3555C11.3954 28.6817 18.6043 28.6817 23.0548 24.3555C27.5149 20.02 27.5149 12.9836 23.0548 8.64812C21.8356 7.46292 20.3836 6.57832 18.7933 6.03332C18.4798 5.92589 18.1386 6.09292 18.0312 6.40639C17.9238 6.71987 18.0908 7.06107 18.4043 7.1685C19.8283 7.65654 21.1272 8.44787 22.2184 9.50857C26.1937 13.3728 26.1937 19.6308 22.2184 23.495C18.2336 27.3685 11.7661 27.3685 7.78131 23.495C3.80603 19.6308 3.80603 13.3728 7.78131 9.50857C8.87302 8.44736 10.1727 7.65577 11.5975 7.1678C11.911 7.06043 12.0781 6.71926 11.9707 6.40576C11.8634 6.09227 11.5222 5.92517 11.2087 6.03253Z" fill="#0732A2"/>
<path fill-rule="evenodd" clip-rule="evenodd" d="M14.4001 3.00002V12.6C14.4001 12.9314 14.6688 13.2 15.0001 13.2C15.3315 13.2 15.6001 12.9314 15.6001 12.6V3.00002C15.6001 2.66865 15.3315 2.40002 15.0001 2.40002C14.6688 2.40002 14.4001 2.66865 14.4001 3.00002Z" fill="#3FA9F5"/>
</svg>
