<svg width="30" height="30" viewBox="0 0 30 30" fill="none" xmlns="http://www.w3.org/2000/svg">
<path fill-rule="evenodd" clip-rule="evenodd" d="M24.6 27.6006H7.79998C5.48038 27.6006 3.59998 25.7202 3.59998 23.4006V3.00057C3.59998 2.58265 4.01655 2.29275 4.40844 2.43795L9.08381 4.17024L13.5847 2.44051C13.7212 2.38807 13.8721 2.38724 14.0091 2.4382L18.6288 4.15616L23.1885 2.43907C23.5809 2.2913 24 2.58129 24 3.00057V21.6006H24.6C26.2568 21.6006 27.6 22.9437 27.6 24.6006C27.6 26.2574 26.2568 27.6006 24.6 27.6006ZM8.74597 26.4006C9.32566 25.7759 9.59997 25.1845 9.59997 24.6214C9.59997 24.0032 9.26973 23.337 8.57029 22.6194C8.19978 22.2392 8.46913 21.6006 8.99997 21.6006H22.8V3.86766L18.8416 5.35831C18.7061 5.40934 18.5567 5.40965 18.421 5.35918L13.8035 3.64202L9.30292 5.37161C9.16669 5.42396 9.01606 5.42487 8.87922 5.37417L4.79997 3.86275V23.4006C4.79997 25.0574 6.14311 26.4006 7.79997 26.4006H8.74597ZM10.2561 26.4006C10.6154 25.8218 10.8 25.2282 10.8 24.6214C10.8 24.006 10.6101 23.3988 10.2403 22.8006H24.6C25.5941 22.8006 26.4 23.6065 26.4 24.6006C26.4 25.5947 25.5941 26.4006 24.6 26.4006H10.2561ZM13.8 10.8006C14.1313 10.8006 14.4 11.0692 14.4 11.4006C14.4 11.7319 14.1313 12.0006 13.8 12.0006H8.99996C8.66859 12.0006 8.39996 11.7319 8.39996 11.4006C8.39996 11.0692 8.66859 10.8006 8.99996 10.8006H13.8ZM19.2 16.2006C19.2 15.8692 18.9313 15.6006 18.6 15.6006H8.99996C8.66859 15.6006 8.39996 15.8692 8.39996 16.2006C8.39996 16.532 8.66859 16.8006 8.99996 16.8006H18.6C18.9313 16.8006 19.2 16.532 19.2 16.2006Z" fill="#30BCED"/>
</svg>
