<svg width="25" height="25" viewBox="0 0 25 25" fill="none" xmlns="http://www.w3.org/2000/svg">
<path d="M21 13.5V19.5C21 20.8807 19.8807 22 18.5 22H6.5C5.11929 22 4 20.8807 4 19.5V13.5C4 13.2239 3.77614 13 3.5 13C3.22386 13 3 13.2239 3 13.5V19.5C3 21.433 4.567 23 6.5 23H18.5C20.433 23 22 21.433 22 19.5V13.5C22 13.2239 21.7761 13 21.5 13C21.2239 13 21 13.2239 21 13.5Z" fill="#3DAA9D"/>
<path fill-rule="evenodd" clip-rule="evenodd" d="M12 4.70711V17.5C12 17.7761 12.2239 18 12.5 18C12.7761 18 13 17.7761 13 17.5V4.70711L16.1464 7.85355C16.3417 8.04882 16.6583 8.04882 16.8536 7.85355C17.0488 7.65829 17.0488 7.34171 16.8536 7.14645L12.8536 3.14645C12.6583 2.95118 12.3417 2.95118 12.1464 3.14645L8.14645 7.14645C7.95118 7.34171 7.95118 7.65829 8.14645 7.85355C8.34171 8.04882 8.65829 8.04882 8.85355 7.85355L12 4.70711Z" fill="#30BCED"/>
</svg>
