<svg width="31" height="31" viewBox="0 0 31 31" fill="none" xmlns="http://www.w3.org/2000/svg">
<path fill-rule="evenodd" clip-rule="evenodd" d="M6.45867 6.45833V3.875H5.167V6.45833H6.45867ZM6.45866 27.125V15.5H5.16699V27.125H6.45866ZM15.5003 3.875V15.5H14.2086V3.875H15.5003ZM15.5003 27.125V24.5416H14.2086V27.125H15.5003ZM24.542 3.875V6.45833H23.2503V3.875H24.542ZM24.542 27.125V15.5H23.2503V27.125H24.542Z" fill="#30BCED"/>
<path fill-rule="evenodd" clip-rule="evenodd" d="M9.04207 10.9792C9.04207 9.19575 7.59633 7.75 5.81291 7.75C4.02949 7.75 2.58374 9.19575 2.58374 10.9792C2.58374 12.7626 4.02949 14.2083 5.81291 14.2083C7.59633 14.2083 9.04207 12.7626 9.04207 10.9792ZM3.87541 10.9791C3.87541 9.90908 4.74286 9.04163 5.81291 9.04163C6.88297 9.04163 7.75041 9.90908 7.75041 10.9791C7.75041 12.0492 6.88297 12.9166 5.81291 12.9166C4.74286 12.9166 3.87541 12.0492 3.87541 10.9791ZM14.8546 16.7916C16.638 16.7916 18.0837 18.2374 18.0837 20.0208C18.0837 21.8042 16.638 23.25 14.8546 23.25C13.0712 23.25 11.6254 21.8042 11.6254 20.0208C11.6254 18.2374 13.0712 16.7916 14.8546 16.7916ZM12.9171 20.0209C12.9171 18.9508 13.7845 18.0834 14.8546 18.0834C15.9246 18.0834 16.7921 18.9508 16.7921 20.0209C16.7921 21.0909 15.9246 21.9584 14.8546 21.9584C13.7845 21.9584 12.9171 21.0909 12.9171 20.0209ZM23.8962 7.75C25.6797 7.75 27.1254 9.19575 27.1254 10.9792C27.1254 12.7626 25.6797 14.2083 23.8962 14.2083C22.1128 14.2083 20.6671 12.7626 20.6671 10.9792C20.6671 9.19575 22.1128 7.75 23.8962 7.75ZM21.9587 10.9791C21.9587 9.90908 22.8262 9.04163 23.8962 9.04163C24.9663 9.04163 25.8337 9.90908 25.8337 10.9791C25.8337 12.0492 24.9663 12.9166 23.8962 12.9166C22.8262 12.9166 21.9587 12.0492 21.9587 10.9791Z" fill="#30BCED"/>
</svg>
