<svg width="30" height="30" viewBox="0 0 30 30" fill="none" xmlns="http://www.w3.org/2000/svg">
<path fill-rule="evenodd" clip-rule="evenodd" d="M10.4433 13.1322L20.4 8.27861L19.8742 7.19995L9.91748 12.0536L10.4433 13.1322ZM10.2264 17.8712L19.859 22.7358L20.4 21.6646L10.7673 16.8L10.2264 17.8712Z" fill="#3FA9F5"/>
<path fill-rule="evenodd" clip-rule="evenodd" d="M27.6001 6.60002C27.6001 4.28043 25.7197 2.40002 23.4001 2.40002C21.0805 2.40002 19.2001 4.28043 19.2001 6.60002C19.2001 8.91962 21.0805 10.8 23.4001 10.8C25.7197 10.8 27.6001 8.91962 27.6001 6.60002ZM27.6001 23.4C27.6001 21.0804 25.7197 19.2 23.4001 19.2C21.0805 19.2 19.2001 21.0804 19.2001 23.4C19.2001 25.7196 21.0805 27.6 23.4001 27.6C25.7197 27.6 27.6001 25.7196 27.6001 23.4ZM7.8001 10.8C10.1197 10.8 12.0001 12.6804 12.0001 15C12.0001 17.3196 10.1197 19.2 7.8001 19.2C5.4805 19.2 3.6001 17.3196 3.6001 15C3.6001 12.6804 5.4805 10.8 7.8001 10.8ZM20.4001 6.60002C20.4001 4.94317 21.7432 3.60002 23.4001 3.60002C25.057 3.60002 26.4001 4.94317 26.4001 6.60002C26.4001 8.25688 25.057 9.60002 23.4001 9.60002C21.7432 9.60002 20.4001 8.25688 20.4001 6.60002ZM23.4001 20.4C21.7432 20.4 20.4001 21.7432 20.4001 23.4C20.4001 25.0569 21.7432 26.4 23.4001 26.4C25.057 26.4 26.4001 25.0569 26.4001 23.4C26.4001 21.7432 25.057 20.4 23.4001 20.4ZM4.8001 15C4.8001 13.3432 6.14324 12 7.8001 12C9.45695 12 10.8001 13.3432 10.8001 15C10.8001 16.6569 9.45695 18 7.8001 18C6.14324 18 4.8001 16.6569 4.8001 15Z" fill="#0732A2"/>
</svg>
