<svg width="30" height="30" viewBox="0 0 30 30" fill="none" xmlns="http://www.w3.org/2000/svg">
<path d="M15.04 0.000544799C23.5409 0.0759293 30.0828 6.80741 29.9992 15.3992C29.9204 23.4647 23.0757 30.0484 14.8198 29.9997C6.47774 29.9484 -0.0801446 23.1863 0.000740207 14.721C0.079551 6.56672 6.86083 -0.0692007 15.04 0.000544799ZM6.8955 10.4493C7.49178 9.96332 8.18192 9.60604 8.92259 9.39991C9.66327 9.19377 10.4385 9.14324 11.1996 9.25147C12.8857 9.44468 13.6421 10.2742 13.6649 11.9499C13.683 13.2881 13.72 14.6275 13.6851 15.9643C13.7015 16.9161 13.6121 17.8669 13.4184 18.7989C13.089 20.0846 11.9613 20.815 10.6716 20.8088C9.38189 20.8025 8.14284 20.0413 7.92004 18.8072C7.68805 17.5277 7.76627 16.1916 7.70553 14.8005C9.16264 14.8005 10.3801 14.8222 11.596 14.7819C11.8271 14.7741 12.0502 14.5204 12.2774 14.38C12.1382 14.1957 11.9989 13.8541 11.8526 13.852C9.65595 13.8179 7.45784 13.8283 5.19781 13.8283C5.19781 14.992 5.16285 15.9841 5.20492 16.9742C5.30595 19.3462 6.74203 21.0735 9.06339 21.6234C9.93404 21.8505 10.8409 21.9028 11.7318 21.7771C12.6227 21.6515 13.48 21.3506 14.2542 20.8916C14.8024 20.5651 15.1386 20.6013 15.6764 20.8916C16.6283 21.4277 17.6861 21.7478 18.7751 21.8293C19.8641 21.9108 20.9577 21.7517 21.9786 21.3632C23.8452 20.6805 24.9775 18.8838 24.7553 17.079C24.5776 15.6247 23.5776 14.8083 22.3282 14.1927C24.5737 12.5337 24.6516 10.4051 22.5551 9.03007C22.0084 8.6853 21.4009 8.44846 20.7653 8.33232C19.0555 8.00585 17.4224 8.38811 15.89 9.14641C15.6364 9.29086 15.3483 9.36324 15.0567 9.35576C14.7651 9.34828 14.4811 9.26122 14.2353 9.10397C11.6422 7.79305 9.03761 7.77851 6.54026 9.43252C6.45671 9.48772 6.41434 9.60406 6.25612 9.83081L6.8955 10.4493Z" fill="#EE2933"/>
<path d="M16.2829 14.8404C17.6499 14.8404 18.9044 14.7514 20.1399 14.8635C21.6687 15.003 22.485 16.4095 22.2293 18.2122C22.1085 18.9722 21.7164 19.6624 21.1259 20.1545C20.5353 20.6466 19.7864 20.9072 19.0185 20.8878C17.5134 20.848 16.3816 19.7101 16.2927 18.0665C16.2382 17.0449 16.2829 16.0163 16.2829 14.8404Z" fill="#EE2933"/>
<path d="M16.2731 13.8013C16.2731 12.6319 16.2619 11.605 16.2823 10.5817C16.2798 10.3653 16.3538 10.1551 16.4912 9.98813C17.2911 9.22894 19.8063 8.99388 20.7576 9.55838C21.1981 9.83408 21.535 10.2482 21.7155 10.7361C21.8961 11.224 21.9101 11.758 21.7555 12.2547C21.6564 12.7084 21.3999 13.1123 21.0316 13.3944C20.6634 13.6766 20.2071 13.8189 19.744 13.7959C18.6448 13.8182 17.5439 13.8013 16.2731 13.8013Z" fill="#EE2933"/>
</svg>
