<svg width="27" height="26" viewBox="0 0 27 26" fill="none" xmlns="http://www.w3.org/2000/svg">
<path d="M23.7467 15.2193C23.7266 15.7318 23.6273 16.2381 23.4523 16.7203C22.8882 18.9735 22.2764 21.2123 21.5894 23.4339C21.432 24.0389 21.0733 24.5723 20.5724 24.9462C20.0715 25.3202 19.4581 25.5124 18.8334 25.4913C18.0578 25.4667 17.2908 25.3222 16.5595 25.0627C11.8273 23.6251 7.08845 22.2127 2.36326 20.7541C1.85491 20.6193 1.38672 20.3636 0.998604 20.0087C0.610491 19.6538 0.313979 19.2103 0.134362 18.716C0.0207474 18.373 -0.0214953 18.0104 0.0102323 17.6505C0.04196 17.2905 0.146987 16.9409 0.318855 16.623C0.945628 15.3326 1.91726 14.2407 3.1262 13.4683C4.13211 12.8299 5.23107 12.3515 6.38379 12.0503C7.13093 11.8429 7.88964 11.6797 8.65597 11.5615C9.30494 11.4527 9.95944 11.38 10.6165 11.3437C10.7537 11.337 10.8872 11.3154 11.0227 11.3C12.191 11.2288 13.3595 11.1828 14.5298 11.2278C15.1125 11.2501 15.6933 11.2671 16.2744 11.2944C17.2735 11.3387 18.2662 11.4276 19.2606 11.5168C19.7728 11.549 20.282 11.6184 20.7842 11.7243C21.6888 11.9041 22.4931 12.4165 23.0384 13.1603C23.4574 13.7694 23.7023 14.4813 23.7467 15.2193Z" fill="#C90302"/>
<path d="M23.7467 15.2177C23.7012 14.4799 23.4565 13.7681 23.0387 13.1583C22.4918 12.4144 21.6868 11.9016 20.7815 11.7203C20.2793 11.6144 19.7701 11.5451 19.2579 11.5129C18.2635 11.4226 17.2691 11.3347 16.2717 11.2904C15.6906 11.2648 15.1085 11.2475 14.527 11.2238C13.3576 11.1893 12.1871 11.2134 11.02 11.2961C11.8636 9.88308 12.6774 8.4501 13.6259 7.10237C14.2313 6.23952 14.8674 5.40065 15.5537 4.59907C16.2533 3.77154 17.0232 3.00618 17.8549 2.31157C18.8411 1.45812 19.9833 0.803892 21.2184 0.385059C22.1468 0.0840748 23.1229 -0.0422739 24.0973 0.0124113C24.6873 0.029568 25.263 0.198144 25.7691 0.501948C26.1012 0.715402 26.381 1.00087 26.5878 1.33719C26.7946 1.67351 26.923 2.05206 26.9636 2.44478C27.0569 3.25533 26.9699 4.0765 26.7089 4.8495C26.0688 7.03344 25.456 9.22537 24.8333 11.4143C24.4766 12.6671 24.0953 13.9119 23.775 15.1774C23.7677 15.1923 23.7582 15.2059 23.7467 15.2177Z" fill="#959595"/>
</svg>
