<svg width="29" height="31" viewBox="0 0 29 31" fill="none" xmlns="http://www.w3.org/2000/svg">
<path d="M26.3971 4.88841C26.5853 5.08584 26.6813 5.36149 26.9249 5.51422C27.4565 5.85321 27.6891 6.42688 28.0065 6.92977C28.3167 7.44965 28.5846 7.99406 28.8076 8.55764C28.8914 8.76916 28.9533 8.98887 28.9922 9.21326C28.9922 15.9185 28.9922 22.6013 28.9922 29.2953C29.0123 29.4581 28.9827 29.6232 28.9073 29.7684C28.7042 29.9435 28.4606 29.8876 28.2317 29.8914C25.9061 29.8914 23.5841 29.8914 21.2585 29.8914C20.5685 29.8708 19.8778 29.897 19.1913 29.9696C19.0158 29.9942 18.8371 29.9751 18.6708 29.9137C18.3652 29.7029 18.0741 29.4714 17.7996 29.2208C17.6798 29.1062 17.5699 28.9816 17.471 28.8483C17.3049 28.5913 17.0723 28.3901 16.9247 28.1033C16.777 27.8165 16.5186 27.511 16.3636 27.1832C16.32 27.1044 16.2554 27.0395 16.1771 26.9961C16.0987 26.9526 16.0098 26.9322 15.9206 26.9373C15.3041 26.9373 14.6876 26.9373 14.0748 26.9373C13.9789 26.931 13.8832 26.9538 13.8003 27.003C13.7173 27.0521 13.6509 27.1253 13.6097 27.213C13.1189 28.1321 12.4745 28.9588 11.7049 29.6567C11.5631 29.7861 11.3956 29.8836 11.2136 29.9427C11.0315 30.0018 10.8391 30.0211 10.6491 29.9994C8.41577 29.9994 6.18611 29.9994 3.95645 29.9994C3.42487 30.0217 2.88961 29.9994 2.35434 29.9994C2.06547 30.018 1.77571 30.018 1.48684 29.9994C1.30964 29.9994 1.11769 29.9659 1.04386 29.7759C0.998254 29.615 0.983223 29.4469 0.999559 29.2804C0.999559 22.5951 0.999559 15.906 0.999559 9.21326C1.17756 8.34011 1.53193 7.51333 2.04056 6.78449C4.00813 3.56227 7.03885 2.04987 10.5974 1.3719C11.7257 1.16786 12.8667 1.04338 14.0121 0.999388C14.8279 0.999388 14.8501 1.03664 14.8574 1.85616C14.8574 1.91577 14.8574 1.97537 14.8574 2.03497C14.8771 2.77999 14.8771 3.51136 14.8574 4.22906C14.8944 4.93683 14.7984 5.65205 14.994 6.3561C15.1137 5.68403 15.1582 5.00055 15.1269 4.31846C15.1269 3.57344 15.1269 2.82842 15.1269 2.05732C15.1085 1.02546 15.1491 0.962137 16.1716 0.999388C17.2805 1.04145 18.3848 1.16595 19.4755 1.3719C20.9794 1.65837 22.435 2.16012 23.7982 2.86194C24.787 3.36031 25.6697 4.04867 26.3971 4.88841Z" fill="#FDFDFD"/>
<path d="M20.225 16.0829C20.5942 16.2133 20.9227 16.3139 21.2328 16.4554C22.1305 16.7758 22.8963 17.3898 23.4086 18.1997C23.9209 19.0096 24.1504 19.969 24.0605 20.9255C23.9202 23.7566 22.152 25.5074 19.2394 25.8762C17.1031 26.0737 14.957 26.1433 12.8125 26.0848C10.9668 26.0848 9.12101 26.0848 7.27526 26.0848C6.94303 26.0848 6.86182 25.9991 6.86182 25.6639C6.86182 19.6789 6.86182 13.6901 6.86182 7.69767C6.86182 7.39966 6.91719 7.29163 7.23097 7.29163C10.7231 7.29163 14.2153 7.29163 17.7037 7.29163C18.6478 7.27484 19.5855 7.44966 20.4613 7.8057C21.0669 8.06231 21.6088 8.45076 22.0484 8.94328C22.488 9.4358 22.8143 10.0202 23.004 10.6548C23.1938 11.2893 23.2422 11.9583 23.146 12.614C23.0498 13.2697 22.8112 13.8958 22.4473 14.4476C21.8973 15.2168 21.119 15.7895 20.225 16.0829Z" fill="black"/>
<path d="M16.8735 26.8411C18.0621 26.7032 19.2176 26.5989 20.3582 26.394C22.9164 25.9582 25.0575 23.3916 24.7696 20.188C24.6035 18.3255 23.7544 16.8987 22.0969 16.0271C22.0637 15.9377 22.1154 15.9004 22.1597 15.8669C24.884 13.7287 24.6256 8.59174 20.4431 7.03091C19.2028 6.58763 17.9071 6.58763 16.6077 6.58763C15.7882 6.58763 15.7882 6.58763 15.7882 5.75693C15.7882 4.50901 15.7882 3.2611 15.7882 2.03181C15.7882 1.86791 15.718 1.6593 16.0244 1.6593C18.7561 1.77478 21.4103 2.20689 23.8282 3.58891C25.9379 4.79165 27.5424 6.72719 28.3429 9.03502C28.4036 9.20199 28.4336 9.37871 28.4315 9.55654C28.4315 16.0134 28.4315 22.4616 28.4315 28.9011C28.4315 29.2177 28.3799 29.3294 28.0292 29.3294C25.076 29.3145 22.1166 29.3145 19.1511 29.3294C19.0499 29.334 18.9488 29.3175 18.8542 29.281C18.7596 29.2445 18.6734 29.1887 18.6011 29.1171C17.8878 28.4755 17.3016 27.7031 16.8735 26.8411Z" fill="#3E4094"/>
<path d="M13.1268 26.8186C12.6677 27.7542 12.0217 28.5837 11.2293 29.2549C11.1298 29.3193 11.0093 29.342 10.8934 29.3182C7.90699 29.3182 4.91688 29.3182 1.92677 29.3182C1.63145 29.3182 1.55762 29.2288 1.55762 28.9457C1.55762 22.4665 1.55762 15.9885 1.55762 9.51178C1.56396 9.30519 1.60905 9.10168 1.69051 8.91204C3.00468 5.47003 5.51859 3.41005 8.95907 2.40054C10.5621 1.95211 12.2133 1.70194 13.8761 1.65552C14.1604 1.65552 14.2231 1.73374 14.2194 2.00195C14.2194 3.41377 14.2194 4.82186 14.2194 6.23368C14.2194 6.53914 14.1235 6.60619 13.8503 6.60619C11.4361 6.60619 9.02182 6.60619 6.60758 6.60619C6.23843 6.60619 6.15353 6.71049 6.15353 7.07556C6.16337 13.4877 6.1683 19.9061 6.1683 26.3307C6.1683 26.7032 6.24951 26.8261 6.6445 26.8224C8.64898 26.7963 10.6498 26.8224 12.6506 26.8224L13.1268 26.8186Z" fill="#EC3237"/>
<path d="M14.7396 22.0468C14.0899 22.0468 13.5584 22.0468 13.0305 22.0468C12.7758 22.0468 12.6613 22.0096 12.6613 21.7153C12.6798 20.6611 12.6613 19.6069 12.6613 18.5489C12.6613 18.4148 12.6023 18.2398 12.8533 18.2472C14.1305 18.2956 15.4152 18.1429 16.6887 18.3478C17.7113 18.5117 18.2613 19.1189 18.2761 20.0539C18.2761 21.0559 17.763 21.7004 16.7515 21.9164C16.0867 22.0258 15.4129 22.0695 14.7396 22.0468Z" fill="#FDFDFD"/>
<path d="M12.6833 12.8831C12.6833 12.3802 12.6833 11.8773 12.6833 11.3707C12.6833 11.2254 12.6833 11.1137 12.8863 11.1211C13.9938 11.1658 15.1012 11.0205 16.1828 11.2143C16.3862 11.2309 16.5841 11.2887 16.7647 11.3842C16.9454 11.4798 17.1051 11.6111 17.2344 11.7704C17.3636 11.9296 17.4597 12.1136 17.5169 12.3112C17.574 12.5087 17.5911 12.7159 17.5671 12.9204C17.5822 13.1253 17.5572 13.3313 17.4933 13.5265C17.4295 13.7217 17.3282 13.9023 17.1952 14.058C17.0622 14.2137 16.9001 14.3414 16.7181 14.4338C16.5362 14.5262 16.338 14.5816 16.1348 14.5967C15.0569 14.7717 13.9679 14.6525 12.8826 14.6898C12.6464 14.6898 12.6722 14.5445 12.6722 14.3955L12.6833 12.8831Z" fill="#FDFDFD"/>
<path d="M15.7957 20.147C15.7957 19.8825 15.8179 19.6105 15.7957 19.3461C15.7588 18.9996 15.9176 18.94 16.2018 18.9996C16.4048 19.0443 16.6116 19.0667 16.8072 19.1225C17.0286 19.1539 17.2304 19.2675 17.3731 19.4411C17.5159 19.6148 17.5892 19.8359 17.5787 20.0613C17.6072 20.303 17.5481 20.5469 17.4125 20.7481C17.2768 20.9494 17.0737 21.0944 16.8404 21.1565C15.9028 21.488 15.7847 21.4023 15.7847 20.4114L15.7957 20.147Z" fill="#3E4095"/>
<path d="M14.2081 20.1544C14.1897 20.3912 14.1897 20.6291 14.2081 20.8659C14.2635 21.2384 14.0974 21.3352 13.7467 21.3166C13.4883 21.3166 13.3776 21.257 13.396 20.9739C13.4237 20.4267 13.4237 19.8784 13.396 19.3311C13.3739 18.9586 13.5584 18.9586 13.8205 18.9586C14.0826 18.9586 14.2524 18.9586 14.2118 19.2976C14.1953 19.5829 14.1941 19.8689 14.2081 20.1544Z" fill="#EC3237"/>
<path d="M14.7358 20.1061C14.7358 19.8267 14.7358 19.5436 14.7358 19.2642C14.7358 19.0556 14.8134 18.9699 15.0238 18.9736C15.2342 18.9774 15.2711 19.0817 15.2711 19.2567C15.2711 19.849 15.2711 20.4376 15.2711 21.0299C15.2711 21.2161 15.1936 21.2944 15.009 21.2944C14.8244 21.2944 14.7358 21.231 14.7395 21.0373C14.7395 20.7431 14.7358 20.4152 14.7358 20.1061Z" fill="#F0F0F0"/>
<path d="M15.792 12.9203C15.8049 12.7131 15.8049 12.5053 15.792 12.2982C15.744 11.9256 15.9064 11.8735 16.2128 11.9666C16.4364 12.023 16.6288 12.1662 16.7484 12.365C16.868 12.5638 16.905 12.8021 16.8515 13.0283C16.847 13.2529 16.7578 13.4673 16.6021 13.6279C16.4464 13.7884 16.2359 13.8831 16.0135 13.8925C15.8658 13.8925 15.792 13.8925 15.7957 13.7137C15.7957 13.4418 15.792 13.1773 15.792 12.9203Z" fill="#3F4195"/>
<path d="M13.4069 12.8941C13.4217 12.687 13.4217 12.4791 13.4069 12.272C13.359 11.8995 13.5029 11.8325 13.8425 11.8362C14.1822 11.8399 14.2412 11.9331 14.2117 12.2385C14.1877 12.7101 14.1877 13.1825 14.2117 13.6541C14.2301 14.0266 13.9791 13.9409 13.7761 13.9521C13.5731 13.9632 13.3663 13.9521 13.4069 13.6466C13.4199 13.396 13.4199 13.1448 13.4069 12.8941Z" fill="#EC3338"/>
<path d="M15.2637 12.8533C15.2637 13.1066 15.2637 13.3562 15.2637 13.5983C15.2637 13.8405 15.1862 13.8889 14.9758 13.8852C14.7654 13.8814 14.7285 13.7771 14.7322 13.6021C14.7322 13.0992 14.7322 12.5963 14.7322 12.112C14.7322 11.922 14.8134 11.8475 14.998 11.8475C15.1825 11.8475 15.2711 11.9109 15.2674 12.1046C15.2638 12.2983 15.2637 12.6037 15.2637 12.8533Z" fill="#EDEDED"/>
</svg>
