<svg width="34" height="34" viewBox="0 0 34 34" fill="none" xmlns="http://www.w3.org/2000/svg">
<path d="M19.6208 25.1426C19.6208 27.8213 19.6007 30.5 19.6375 33.1775C19.6453 33.7119 19.42 33.8308 18.9905 33.883C16.6465 34.147 14.273 33.9217 12.0212 33.2214C9.76951 32.5211 7.68899 31.3611 5.91231 29.8156C2.71973 27.0202 0.793249 23.5438 0.18195 19.3453C-0.417077 15.2345 0.476444 11.4515 2.66396 7.94395C4.78342 4.54422 7.79529 2.26328 11.5289 0.907834C12.9244 0.401207 14.3902 0.166781 15.8861 0.0479016C18.9314 -0.194302 21.7704 0.492311 24.4353 1.87331C27.5074 3.45986 29.9013 5.8019 31.6571 8.78611C32.873 10.8504 33.6885 13.0669 33.9116 15.4434C34.1308 17.6072 33.9416 19.7928 33.3538 21.8873C32.6956 24.2423 31.5137 26.4196 29.8957 28.2579C27.7127 30.7322 24.9775 32.282 21.8641 33.242C21.5952 33.3242 21.5082 33.3009 21.5105 33.002C21.5194 31.4688 21.5194 29.9356 21.5105 28.4023C21.5105 28.0846 21.6934 27.9413 21.9444 27.8357C23.2977 27.2542 24.5185 26.4053 25.533 25.3404C27.5141 23.2916 28.6129 20.8441 28.8605 17.9798C29.0524 15.7578 28.6843 13.6468 27.6893 11.6859C25.9435 8.2417 23.1413 6.07743 19.3386 5.30638C16.3791 4.70643 13.568 5.19528 10.9488 6.71294C9.004 7.82336 7.42835 9.47687 6.41652 11.4692C5.0469 14.1815 4.73109 17.3019 5.5297 20.2319C6.21462 22.6206 7.48853 24.6249 9.43397 26.2059C10.7204 27.2449 12.2027 28.0171 13.7934 28.4768C14.2887 28.6234 14.3958 28.5179 14.3935 28.0257C14.379 24.4649 14.3902 20.8996 14.3902 17.3321C14.3902 16.2522 14.3846 16.2522 15.4633 16.2522C16.61 16.2522 17.7568 16.2522 18.9035 16.2522C19.5639 16.2522 19.6241 16.3166 19.6253 16.9944C19.6238 19.7119 19.6223 22.428 19.6208 25.1426Z" fill="#9FD962"/>
<path d="M16.9718 9.27515C18.4866 9.27515 19.8643 10.6273 19.8408 12.126C19.8152 13.7192 18.5647 15.0358 16.9528 15.0147C15.2896 14.9925 14.1384 13.7415 14.0826 12.1671C14.0279 10.6461 15.4368 9.27626 16.9718 9.27515Z" fill="#F6803D"/>
</svg>
