<svg width="26" height="27" viewBox="0 0 26 27" fill="none" xmlns="http://www.w3.org/2000/svg">
<path d="M13 0H0.0405273V5.80004H13V0Z" fill="#00A75F"/>
<path d="M0.0405273 9.52865H13V14.0858H3.59724V17.1039H13V22.9636H0.0405273V9.52865ZM19.8599 1.12427H25.6331L19.2869 11.8798V15.1616L25.6331 22.9636H19.7136L14.6453 15.9912V8.88708L19.8599 1.12427Z" fill="#026635"/>
<path d="M1.30944 24.11H0.559447V24.4131H1.24792V24.6611H0.559447V25.0282H1.34404V25.2849H0.27002V23.8572H1.3094V24.11H1.30944ZM1.54978 23.862H1.81901V24.6311L2.16033 24.234H2.49975L2.13341 24.6378L2.51419 25.2849H2.18344L1.93245 24.8335L1.81904 24.9527V25.2849H1.54978V23.862ZM3.11897 25.0902C3.19909 25.0902 3.2606 25.0615 3.30356 25.004C3.34652 24.9465 3.36799 24.8648 3.36799 24.7589C3.36799 24.653 3.34648 24.5717 3.30356 24.5149C3.2606 24.4574 3.19909 24.4286 3.11897 24.4286C3.03882 24.4286 2.97697 24.4574 2.93336 24.5149C2.89044 24.5717 2.86896 24.653 2.86896 24.7589C2.86896 24.8648 2.89044 24.9465 2.9334 25.004C2.97697 25.0615 3.03882 25.0902 3.11897 25.0902ZM3.65549 24.7589C3.65549 24.9139 3.61126 25.0466 3.52275 25.157C3.43433 25.2668 3.30002 25.3217 3.11992 25.3217C2.93978 25.3217 2.80551 25.2668 2.71705 25.157C2.62858 25.0466 2.58435 24.9139 2.58435 24.7589C2.58435 24.6066 2.62858 24.4745 2.71708 24.3628C2.80551 24.2511 2.93981 24.1952 3.11992 24.1952C3.30006 24.1952 3.43433 24.2511 3.52279 24.3628C3.61126 24.4745 3.65549 24.6066 3.65549 24.7589ZM4.43334 24.2039C4.54164 24.2039 4.63011 24.2327 4.6987 24.2902C4.76791 24.3469 4.80255 24.4416 4.80255 24.5739V25.2849H4.52177V24.6427C4.52177 24.5872 4.5144 24.5445 4.49967 24.5149C4.47276 24.4606 4.42145 24.4335 4.34582 24.4335C4.25287 24.4335 4.18909 24.4732 4.15449 24.5526C4.13654 24.5946 4.12757 24.6482 4.12757 24.7134V25.2849H3.85452V24.231H4.11889V24.3851C4.15416 24.3308 4.18749 24.2918 4.21892 24.2679C4.27533 24.2252 4.34681 24.2039 4.43334 24.2039ZM5.44289 24.2039C5.50634 24.2039 5.56275 24.2182 5.61213 24.2465C5.66146 24.2743 5.70154 24.3131 5.73232 24.3628V23.8591H6.01018V25.2849H5.74384V25.1386C5.70475 25.2012 5.66019 25.2468 5.61019 25.2752C5.5602 25.3036 5.49802 25.3178 5.42367 25.3178C5.30122 25.3178 5.19802 25.2681 5.11408 25.1687C5.03072 25.0686 4.98907 24.9404 4.98907 24.7841C4.98907 24.604 5.0301 24.4622 5.11215 24.3589C5.19481 24.2556 5.30509 24.2039 5.44289 24.2039ZM5.50251 25.0854C5.58007 25.0854 5.63904 25.0563 5.6794 24.9982C5.71981 24.9401 5.74001 24.8648 5.74001 24.7725C5.74001 24.6434 5.70763 24.551 5.64287 24.4955C5.60316 24.4619 5.55699 24.4451 5.50444 24.4451C5.42429 24.4451 5.36533 24.4758 5.32751 24.5371C5.29035 24.5978 5.27176 24.6734 5.27176 24.7638C5.27176 24.8613 5.29065 24.9394 5.32846 24.9982C5.36693 25.0563 5.42495 25.0854 5.50251 25.0854ZM6.73034 25.0902C6.81046 25.0902 6.87201 25.0615 6.91493 25.004C6.95789 24.9465 6.97937 24.8648 6.97937 24.7589C6.97937 24.653 6.95789 24.5717 6.91493 24.5149C6.87201 24.4574 6.81046 24.4286 6.73034 24.4286C6.65023 24.4286 6.58835 24.4574 6.54477 24.5149C6.50181 24.5717 6.48034 24.653 6.48034 24.7589C6.48034 24.8648 6.50181 24.9465 6.54477 25.004C6.58835 25.0615 6.65023 25.0902 6.73034 25.0902ZM7.26686 24.7589C7.26686 24.9139 7.22263 25.0466 7.13416 25.157C7.0457 25.2668 6.91143 25.3217 6.73129 25.3217C6.55119 25.3217 6.41689 25.2668 6.32842 25.157C6.23999 25.0466 6.19576 24.9139 6.19576 24.7589C6.19576 24.6066 6.23999 24.4745 6.32842 24.3628C6.41689 24.2511 6.55119 24.1952 6.73129 24.1952C6.91143 24.1952 7.0457 24.2511 7.13416 24.3628C7.22263 24.4745 7.26686 24.6066 7.26686 24.7589ZM8.97349 23.8572H9.39945V25.2849H9.12351V24.3192C9.12351 24.2914 9.1238 24.2527 9.12446 24.203C9.12512 24.1526 9.12541 24.1139 9.12541 24.0867L8.85717 25.2849H8.56967L8.30333 24.0867C8.30333 24.1139 8.30365 24.1526 8.30431 24.203C8.30493 24.2527 8.30526 24.2914 8.30526 24.3192V25.2849H8.02932V23.8572H8.46006L8.71776 24.9798L8.97349 23.8572ZM9.93403 24.1032H9.65617V23.8485H9.93403V24.1032ZM9.65617 24.2291H9.93403V25.2849H9.65617V24.2291ZM10.8263 24.6078C10.8216 24.5697 10.8081 24.5332 10.7869 24.5013C10.7561 24.4587 10.7084 24.4374 10.6436 24.4374C10.5513 24.4374 10.4882 24.4835 10.4542 24.5759C10.4363 24.625 10.4273 24.6902 10.4273 24.7715C10.4273 24.849 10.4363 24.9113 10.4542 24.9585C10.4869 25.0463 10.5484 25.0902 10.6388 25.0902C10.7029 25.0902 10.7484 25.0728 10.7754 25.0379C10.8023 25.003 10.8186 24.9578 10.8244 24.9023H11.1042C11.0978 24.9862 11.0676 25.0657 11.0138 25.1406C10.9279 25.2613 10.8007 25.3217 10.6321 25.3217C10.4635 25.3217 10.3395 25.2713 10.26 25.1706C10.1805 25.0698 10.1408 24.9391 10.1408 24.7783C10.1408 24.5969 10.1847 24.4558 10.2725 24.355C10.3603 24.2543 10.4815 24.2039 10.6359 24.2039C10.7673 24.2039 10.8747 24.2336 10.958 24.2931C11.042 24.3525 11.0917 24.4574 11.1071 24.6078H10.8263ZM11.8657 24.2039C11.8708 24.2039 11.875 24.2043 11.8782 24.2049C11.882 24.2049 11.89 24.2052 11.9022 24.2059V24.4887C11.8761 24.4857 11.8497 24.4841 11.8234 24.4839C11.7131 24.4839 11.6391 24.52 11.6013 24.5923C11.5801 24.633 11.5696 24.6957 11.5696 24.7802V25.2849H11.2936V24.2291H11.5551V24.4131C11.5974 24.3428 11.6343 24.2947 11.6657 24.2688C11.717 24.2256 11.7836 24.2039 11.8657 24.2039ZM12.5339 25.0902C12.614 25.0902 12.6756 25.0615 12.7185 25.004C12.7615 24.9465 12.7829 24.8648 12.7829 24.7589C12.7829 24.653 12.7615 24.5717 12.7185 24.5149C12.6756 24.4574 12.614 24.4286 12.5339 24.4286C12.4538 24.4286 12.392 24.4574 12.3484 24.5149C12.3054 24.5717 12.284 24.653 12.284 24.7589C12.284 24.8648 12.3054 24.9465 12.3484 25.004C12.392 25.0615 12.4538 25.0902 12.5339 25.0902ZM13.0704 24.7589C13.0704 24.9139 13.0262 25.0466 12.9377 25.157C12.8493 25.2668 12.715 25.3217 12.5349 25.3217C12.3548 25.3217 12.2205 25.2668 12.132 25.157C12.0436 25.0466 11.9993 24.9139 11.9993 24.7589C11.9993 24.6066 12.0436 24.4745 12.132 24.3628C12.2205 24.2511 12.3548 24.1952 12.5349 24.1952C12.715 24.1952 12.8493 24.2511 12.9377 24.3628C13.0262 24.4745 13.0704 24.6066 13.0704 24.7589ZM13.6541 23.8427C13.6714 23.8427 13.6871 23.8433 13.7012 23.8446C13.7153 23.8452 13.7345 23.8465 13.7589 23.8485V24.0732C13.7435 24.0713 13.7175 24.0699 13.681 24.0693C13.6451 24.068 13.6201 24.0761 13.606 24.0935C13.5929 24.1093 13.5858 24.1291 13.5858 24.1497V24.2388H13.7656V24.4335H13.5858V25.2849H13.3128V24.4335H13.1599V24.2388H13.3098V24.171C13.3098 24.058 13.3288 23.9802 13.3666 23.9376C13.4063 23.8743 13.5022 23.8427 13.6541 23.8427ZM14.205 24.1032H13.9271V23.8485H14.205V24.1032ZM13.9271 24.2291H14.205V25.2849H13.9271V24.2291ZM15.0521 24.2039C15.1604 24.2039 15.2489 24.2327 15.3175 24.2902C15.3867 24.3469 15.4213 24.4416 15.4213 24.5739V25.2849H15.1406V24.6427C15.1406 24.5872 15.1332 24.5445 15.1184 24.5149C15.0915 24.4606 15.0402 24.4335 14.9646 24.4335C14.8717 24.4335 14.8079 24.4732 14.7732 24.5526C14.7553 24.5946 14.7463 24.6482 14.7463 24.7134V25.2849H14.4733V24.231H14.7377V24.3851C14.773 24.3308 14.8063 24.2918 14.8377 24.2679C14.8941 24.2252 14.9656 24.2039 15.0521 24.2039ZM16.253 24.7715C16.2362 24.7822 16.2185 24.7913 16.2001 24.7986C16.1828 24.8051 16.1588 24.8112 16.128 24.817L16.0665 24.8287C16.0088 24.839 15.9674 24.8516 15.9424 24.8664C15.9001 24.8916 15.879 24.9307 15.879 24.9836C15.879 25.0308 15.8918 25.065 15.9174 25.0863C15.9437 25.107 15.9754 25.1173 16.0126 25.1173C16.0716 25.1173 16.1258 25.0999 16.1751 25.065C16.2251 25.0301 16.2511 24.9666 16.253 24.8742V24.7715ZM16.0867 24.6427C16.1373 24.6362 16.1735 24.6282 16.1953 24.6185C16.2344 24.6017 16.254 24.5755 16.254 24.54C16.254 24.4968 16.2389 24.4671 16.2088 24.4509C16.1793 24.4341 16.1357 24.4257 16.078 24.4257C16.0133 24.4257 15.9674 24.4419 15.9405 24.4742C15.9213 24.4981 15.9085 24.5304 15.902 24.571H15.6376C15.6434 24.4787 15.6691 24.4028 15.7146 24.3434C15.787 24.2504 15.9113 24.2039 16.0876 24.2039C16.2024 24.2039 16.3043 24.2269 16.3934 24.2727C16.4825 24.3186 16.527 24.4051 16.527 24.5323V25.0166C16.527 25.0502 16.5277 25.0908 16.529 25.1386C16.5309 25.1748 16.5363 25.1993 16.5453 25.2122C16.5543 25.2252 16.5677 25.2358 16.5857 25.2442V25.2849H16.2876C16.2798 25.2655 16.274 25.2454 16.2703 25.2248C16.2668 25.2037 16.2642 25.1823 16.2626 25.1609C16.2245 25.2025 16.1804 25.2381 16.1318 25.2665C16.0729 25.3007 16.0062 25.3178 15.9319 25.3178C15.837 25.3178 15.7585 25.2907 15.6963 25.2364C15.6347 25.1816 15.604 25.1041 15.604 25.004C15.604 24.8742 15.6537 24.7802 15.753 24.7221C15.8075 24.6905 15.8876 24.6679 15.9934 24.6543L16.0867 24.6427ZM17.352 24.2039C17.4603 24.2039 17.5488 24.2327 17.6173 24.2902C17.6866 24.3469 17.7212 24.4416 17.7212 24.5739V25.2849H17.4404V24.6427C17.4404 24.5872 17.4331 24.5445 17.4183 24.5149C17.3914 24.4606 17.3401 24.4335 17.2645 24.4335C17.1716 24.4335 17.1078 24.4732 17.0732 24.5526C17.0552 24.5946 17.0462 24.6482 17.0462 24.7134V25.2849H16.7732V24.231H17.0376V24.3851C17.0728 24.3308 17.1062 24.2918 17.1376 24.2679C17.194 24.2252 17.2654 24.2039 17.352 24.2039ZM18.601 24.6078C18.5963 24.5697 18.5828 24.5332 18.5615 24.5013C18.5308 24.4587 18.483 24.4374 18.4183 24.4374C18.326 24.4374 18.2629 24.4835 18.2289 24.5759C18.2109 24.625 18.202 24.6902 18.202 24.7715C18.202 24.849 18.2109 24.9113 18.2289 24.9585C18.2615 25.0463 18.3231 25.0902 18.4135 25.0902C18.4776 25.0902 18.5231 25.0728 18.55 25.0379C18.5769 25.003 18.5933 24.9578 18.599 24.9023H18.8788C18.8724 24.9862 18.8423 25.0657 18.7885 25.1406C18.7026 25.2613 18.5753 25.3217 18.4068 25.3217C18.2382 25.3217 18.1141 25.2713 18.0347 25.1706C17.9552 25.0698 17.9154 24.9391 17.9154 24.7783C17.9154 24.5969 17.9593 24.4558 18.0472 24.355C18.135 24.2543 18.2561 24.2039 18.4106 24.2039C18.542 24.2039 18.6494 24.2336 18.7327 24.2931C18.8167 24.3525 18.8663 24.4574 18.8817 24.6078H18.601ZM19.4846 24.4286C19.4211 24.4286 19.3718 24.4487 19.3365 24.4887C19.3019 24.5287 19.2801 24.583 19.2711 24.6514H19.6971C19.6926 24.5784 19.6705 24.5232 19.6307 24.4858C19.5916 24.4477 19.5429 24.4286 19.4846 24.4286ZM19.4846 24.201C19.5718 24.201 19.6503 24.2175 19.7201 24.2504C19.79 24.2834 19.8477 24.3353 19.8932 24.4064C19.9343 24.469 19.9608 24.5416 19.973 24.6243C19.9801 24.6727 19.983 24.7425 19.9817 24.8335H19.2644C19.2683 24.9394 19.3013 25.0137 19.3634 25.0563C19.4012 25.0828 19.4468 25.096 19.5 25.096C19.5564 25.096 19.6022 25.0799 19.6375 25.0476C19.6567 25.0301 19.6737 25.0059 19.6884 24.9749H19.9682C19.9612 25.0376 19.9288 25.1012 19.8711 25.1658C19.7814 25.2684 19.6557 25.3198 19.4942 25.3198C19.3609 25.3198 19.2432 25.2765 19.1413 25.19C19.0394 25.1034 18.9885 24.9627 18.9885 24.7677C18.9885 24.5849 19.0343 24.4448 19.126 24.3473C19.2183 24.2498 19.3378 24.201 19.4846 24.201ZM21.0249 24.1051V24.4199H21.373C21.4352 24.4199 21.4855 24.4083 21.5239 24.3851C21.563 24.3612 21.5826 24.3192 21.5826 24.2592C21.5826 24.1926 21.5569 24.1487 21.5056 24.1274C21.4614 24.1126 21.405 24.1051 21.3364 24.1051H21.0249ZM21.0249 24.6563V25.0369H21.373C21.4352 25.0369 21.4835 25.0285 21.5181 25.0117C21.581 24.9807 21.6124 24.9213 21.6124 24.8335C21.6124 24.7593 21.5819 24.7082 21.521 24.6805C21.4871 24.665 21.4393 24.6569 21.3778 24.6563H21.0249ZM21.4307 23.8572C21.6044 23.8598 21.7274 23.9105 21.7999 24.0092C21.8435 24.0699 21.8653 24.1426 21.8653 24.2272C21.8653 24.3144 21.8435 24.3844 21.7999 24.4374C21.7755 24.4671 21.7396 24.4942 21.6922 24.5187C21.7646 24.5452 21.8191 24.5872 21.8556 24.6446C21.8928 24.7021 21.9114 24.7719 21.9114 24.8539C21.9114 24.9385 21.8902 25.0143 21.8479 25.0815C21.8218 25.1252 21.7875 25.1633 21.747 25.1938C21.7015 25.2287 21.6476 25.2526 21.5855 25.2655C21.5239 25.2784 21.4569 25.2849 21.3845 25.2849H20.7422V23.8572H21.4307ZM22.7162 24.7715C22.6994 24.7822 22.6817 24.7913 22.6633 24.7986C22.646 24.8051 22.622 24.8112 22.5912 24.817L22.5296 24.8287C22.4719 24.839 22.4306 24.8516 22.4056 24.8664C22.3633 24.8916 22.3422 24.9307 22.3422 24.9836C22.3422 25.0308 22.355 25.065 22.3806 25.0863C22.4069 25.107 22.4386 25.1173 22.4758 25.1173C22.5348 25.1173 22.5889 25.0999 22.6383 25.065C22.6883 25.0301 22.7143 24.9666 22.7162 24.8742V24.7715ZM22.5498 24.6427C22.6005 24.6362 22.6367 24.6282 22.6585 24.6185C22.6976 24.6017 22.7171 24.5755 22.7171 24.54C22.7171 24.4968 22.7021 24.4671 22.672 24.4509C22.6425 24.4341 22.5989 24.4257 22.5412 24.4257C22.4764 24.4257 22.4306 24.4419 22.4037 24.4742C22.3845 24.4981 22.3716 24.5304 22.3652 24.571H22.1008C22.1066 24.4787 22.1322 24.4028 22.1777 24.3434C22.2502 24.2504 22.3745 24.2039 22.5508 24.2039C22.6655 24.2039 22.7675 24.2269 22.8565 24.2727C22.9457 24.3186 22.9902 24.4051 22.9902 24.5323V25.0166C22.9902 25.0502 22.9908 25.0908 22.9921 25.1386C22.9941 25.1748 22.9995 25.1993 23.0085 25.2122C23.0174 25.2252 23.0309 25.2358 23.0489 25.2442V25.2849H22.7508C22.743 25.2655 22.7372 25.2454 22.7335 25.2248C22.73 25.2037 22.7274 25.1823 22.7258 25.1609C22.6877 25.2025 22.6436 25.2381 22.595 25.2665C22.536 25.3007 22.4694 25.3178 22.395 25.3178C22.3002 25.3178 22.2216 25.2907 22.1595 25.2364C22.0979 25.1816 22.0672 25.1041 22.0672 25.004C22.0672 24.8742 22.1168 24.7802 22.2162 24.7221C22.2707 24.6905 22.3508 24.6679 22.4566 24.6543L22.5498 24.6427ZM23.8152 24.2039C23.9235 24.2039 24.012 24.2327 24.0805 24.2902C24.1498 24.3469 24.1844 24.4416 24.1844 24.5739V25.2849H23.9036V24.6427C23.9036 24.5872 23.8963 24.5445 23.8815 24.5149C23.8546 24.4606 23.8033 24.4335 23.7277 24.4335C23.6347 24.4335 23.5709 24.4732 23.5363 24.5526C23.5184 24.5946 23.5094 24.6482 23.5094 24.7134V25.2849H23.2363V24.231H23.5007V24.3851C23.536 24.3308 23.5693 24.2918 23.6007 24.2679C23.6571 24.2252 23.7286 24.2039 23.8152 24.2039ZM24.4353 23.862H24.7045V24.6311L25.0459 24.234H25.3853L25.019 24.6378L25.3997 25.2849H25.069L24.818 24.8335L24.7045 24.9527V25.2849H24.4353V23.862Z" fill="#69BC97"/>
</svg>
