<svg width="262" height="214" viewBox="0 0 262 214" fill="none" xmlns="http://www.w3.org/2000/svg">
<path d="M296.473 121.641C311.306 113.701 331.11 94.9819 305.371 96.5359C296.344 97.0799 179.981 121.14 179.938 121.149C179.961 121.145 179.983 121.141 180.006 121.137C172.775 122.574 164.216 125.647 156.028 130.021L115.405 151.725C113.901 152.406 111.815 154.661 114.245 156.685L133.728 168.147C133.88 168.269 134.223 168.285 134.635 168.204C134.638 168.203 134.641 168.202 134.644 168.201L134.64 168.204L153.92 164.34L64.2693 212.295L66.1133 213.723L79.3423 211.078L174.386 160.238L254.002 144.283C254.003 144.283 293.419 123.299 296.473 121.641Z" fill="url(#paint0_linear)"/>
<path d="M2.8623 100.753L52.5483 70.7479L47.5553 126.557L2.8623 100.753Z" fill="#AB3529"/>
<path d="M66.4263 213.722L74.7183 208.903L74.9163 88.2749L66.6233 93.0939L66.4263 213.722Z" fill="#023248"/>
<path d="M66.6233 93.0939L74.9163 88.2749L65.7583 82.9869L57.4653 87.8069L66.6233 93.0939Z" fill="#005478"/>
<path d="M62.1143 90.4929L61.9163 211.12L66.4263 213.722L66.6233 93.0939L62.1143 90.4929Z" fill="#005478"/>
<path d="M9.56633 48.4639C6.41533 50.0009 2.97034 55.5429 2.86234 60.5419C2.80734 61.3589 2.86234 100.696 2.86234 100.753C2.86834 100.741 74.7473 58.9839 77.2073 57.5489C77.3923 60.0929 77.3133 19.8469 77.3783 19.6009C77.3833 19.2919 77.3673 19.3639 77.4303 18.0169C77.8593 13.3899 78.9183 8.21993 83.9743 5.22293L9.56633 48.4639Z" fill="#6B1715"/>
<path d="M24.3873 111.522L66.6243 87.1369L47.0473 75.8339L4.80933 100.218L24.3873 111.522Z" fill="#B8BDC0"/>
<path d="M124.915 45.9189C124.926 31.4479 109.791 -2.66407 86.9515 0.165926C78.9415 1.15793 7.48745 45.0049 7.46045 45.0199C22.6024 37.1669 43.2805 58.9329 48.5385 77.7679C51.3705 82.9009 49.9905 130.77 49.9905 130.77L124.704 87.1779C124.705 87.1779 124.956 48.9399 124.915 45.9189Z" fill="#ED604F"/>
<path d="M25.3974 46.7819C11.4734 38.7429 0.158359 45.1939 0.111359 61.1879L0.000367064 100.741C-0.00863294 101.178 0.148359 101.688 0.417359 102.143C0.677359 102.607 1.04837 102.997 1.42037 103.21L48.9744 130.668C49.3554 130.891 49.7264 130.918 49.9864 130.77C50.2564 130.622 50.4134 130.288 50.4134 129.851L50.5244 90.2979C50.5714 74.2959 39.3214 54.8209 25.3974 46.7819ZM47.5554 126.556L2.85936 100.75L2.97037 62.8399C2.98937 55.7389 5.50436 50.7739 9.57036 48.4609C13.6274 46.1499 19.2154 46.5029 25.3874 50.0589C31.5604 53.6319 37.1294 59.7209 41.1674 66.7109C45.2054 73.6909 47.6844 81.5449 47.6654 88.6459L47.5554 126.556Z" fill="#EF7F74"/>
<path d="M39.9153 126.338L56.4453 93.1989L29.8413 88.7739L13.3103 121.914L39.9153 126.338Z" fill="white"/>
<path d="M13.3103 121.915L29.8413 88.7739L32.8283 89.2709L35.7103 107.074L35.1403 108.219L16.2983 122.411L13.3103 121.915Z" fill="#E5E3E4"/>
<path d="M88.5273 53.1049C96.6373 48.4219 103.235 52.1819 103.262 61.5009C103.283 69.0999 98.9283 78.0489 92.9233 83.6329L97.1833 91.4259L84.5153 88.5539C78.3973 90.0399 73.9103 86.1419 73.8883 78.4599C73.8623 69.1409 80.4173 57.7879 88.5273 53.1049Z" fill="#F5C300"/>
<defs>
<linearGradient id="paint0_linear" x1="92.2302" y1="196.072" x2="244.06" y2="116.753" gradientUnits="userSpaceOnUse">
<stop stop-color="#A1A1BD"/>
<stop offset="1" stop-color="white"/>
</linearGradient>
</defs>
</svg>
